<?xml version="1.0" encoding="UTF-8" standalone="no"?>
<svg
   xmlns:dc="http://purl.org/dc/elements/1.1/"
   xmlns:cc="http://creativecommons.org/ns#"
   xmlns:rdf="http://www.w3.org/1999/02/22-rdf-syntax-ns#"
   xmlns:svg="http://www.w3.org/2000/svg"
   xmlns="http://www.w3.org/2000/svg"
   xmlns:sodipodi="http://sodipodi.sourceforge.net/DTD/sodipodi-0.dtd"
   xmlns:inkscape="http://www.inkscape.org/namespaces/inkscape"
   width="2353"
   height="2500"
   viewBox="0 0 256 272"
   preserveAspectRatio="xMidYMid"
   version="1.1"
   id="svg8"
   sodipodi:docname="html+css+js.svg"
   inkscape:version="0.92.3 (2405546, 2018-03-11)">
  <metadata
     id="metadata14">
    <rdf:RDF>
      <cc:Work
         rdf:about="">
        <dc:format>image/svg+xml</dc:format>
        <dc:type
           rdf:resource="http://purl.org/dc/dcmitype/StillImage" />
        <dc:title />
      </cc:Work>
    </rdf:RDF>
  </metadata>
  <defs
     id="defs12" />
  <sodipodi:namedview
     pagecolor="#ffffff"
     bordercolor="#666666"
     borderopacity="1"
     objecttolerance="10"
     gridtolerance="10"
     guidetolerance="10"
     inkscape:pageopacity="0"
     inkscape:pageshadow="2"
     inkscape:window-width="1366"
     inkscape:window-height="705"
     id="namedview10"
     showgrid="false"
     inkscape:zoom="0.12866553"
     inkscape:cx="2329.4465"
     inkscape:cy="835.89331"
     inkscape:window-x="-8"
     inkscape:window-y="-8"
     inkscape:window-maximized="1"
     inkscape:current-layer="svg8" />
  <polygon
     style="fill:#264de4;stroke:#ffffff;stroke-width:11.73525715;stroke-miterlimit:4;stroke-dasharray:none;stroke-opacity:1"
     points="437.367,100.62 404.321,470.819 255.778,512 107.644,470.877 74.633,100.62 "
     id="polygon2989"
     transform="matrix(0.30524584,0,0,0.30524584,117.38344,-26.633174)" />
  <polygon
     style="fill:#2965f1"
     points="376.03,447.246 404.27,130.894 256,130.894 256,480.523 "
     id="polygon2991"
     transform="matrix(-0.30524584,0,0,0.30524584,273.52281,-26.578664)" />
  <polygon
     style="fill:#ebebeb"
     points="256,268.217 150.31,268.217 154.38,313.627 256,313.627 "
     id="polygon2993"
     transform="matrix(0.30524584,0,0,0.30524584,117.38344,-26.633174)" />
  <polygon
     style="fill:#ebebeb"
     points="256,176.305 255.843,176.305 142.132,176.305 146.26,221.716 256,221.716 "
     id="polygon2995"
     transform="matrix(0.30524584,0,0,0.30524584,117.38344,-26.633174)" />
  <polygon
     style="fill:#ebebeb"
     points="255.791,433.457 256,433.399 256,386.153 255.801,386.206 205.227,372.55 201.994,336.333 177.419,336.333 156.409,336.333 162.771,407.634 "
     id="polygon2997"
     transform="matrix(0.30524584,0,0,0.30524584,117.38344,-26.633174)" />
  <polygon
     style="fill:#ffffff"
     points="349.62,399.962 360.291,280.411 361.399,268.217 369.597,176.305 255.843,176.305 255.843,221.716 319.831,221.716 315.699,268.217 255.843,268.217 255.843,313.627 311.761,313.627 306.49,372.521 255.843,386.191 255.843,433.435 348.937,407.634 "
     id="polygon3005"
     transform="matrix(0.30524584,0,0,0.30524584,117.38344,-26.633174)" />
  <polygon
     style="fill:#e44d26;stroke:#ffffff;stroke-width:11.73525715;stroke-miterlimit:4;stroke-dasharray:none"
     points="437.367,100.62 404.321,470.819 255.778,512 107.644,470.877 74.633,100.62 "
     id="polygon3028"
     transform="matrix(-0.30297401,0,0,0.30297401,138.96389,-26.417906)" />
  <polygon
     style="fill:#f16529"
     points="256,130.894 256,480.523 376.03,447.246 404.27,130.894 "
     id="polygon3030"
     transform="matrix(-0.30297401,0,0,0.30297401,138.87256,-26.417906)" />
  <polygon
     style="fill:#ebebeb"
     points="191.76,221.716 256,221.716 256,176.305 255.843,176.305 142.132,176.305 143.219,188.488 154.38,313.627 256,313.627 256,268.217 195.91,268.217 "
     id="polygon3032"
     transform="matrix(0.30297401,0,0,0.30297401,-16.158806,-26.41791)" />
  <polygon
     style="fill:#ebebeb"
     points="255.791,433.457 256,433.399 256,386.153 255.801,386.206 205.227,372.55 201.994,336.333 177.419,336.333 156.409,336.333 162.771,407.634 "
     id="polygon3034"
     transform="matrix(0.30297401,0,0,0.30297401,-16.158806,-26.41791)" />
  <polygon
     style="fill:#ffffff"
     points="361.399,268.217 349.162,268.217 255.843,268.217 255.843,313.627 311.761,313.627 306.49,372.521 255.843,386.191 255.843,433.435 348.937,407.634 349.62,399.962 360.291,280.411 "
     id="polygon3044"
     transform="matrix(0.30297401,0,0,0.30297401,-16.158806,-26.41791)" />
  <polygon
     style="fill:#ffffff"
     points="365.531,221.716 366.442,211.509 368.511,188.488 369.597,176.305 255.843,176.305 255.843,204.509 255.843,221.605 255.843,221.716 365.385,221.716 "
     id="polygon3046"
     transform="matrix(0.30297401,0,0,0.30297401,-16.158806,-26.41791)" />
  <polygon
     transform="matrix(0.36519618,0,0,0.36519618,69.436869,108.08931)"
     style="fill:#efc725;stroke:#ffffff;stroke-width:9.73125839;stroke-miterlimit:4;stroke-dasharray:none;stroke-opacity:1"
     id="polygon2"
     points="40.845,401.254 13.775,97.632 311.225,97.632 284.127,401.205 162.318,434.975 " />
  <polygon
     transform="matrix(0.36519618,0,0,0.36519618,69.436869,108.08931)"
     style="fill:#fbde34"
     id="polygon4"
     points="162.25,122.083 162.25,408.787 260.678,381.5 283.836,122.083 " />
  <polygon
     transform="matrix(0.36519618,0,0,0.36519618,69.436869,108.08931)"
     style="fill:#ebebeb"
     id="polygon6"
     points="162.031,331.473 120.559,320.272 117.906,290.575 97.756,290.575 80.527,290.575 85.744,349.043 162.021,370.219 162.193,370.17 162.193,331.426 " />
  <polygon
     transform="matrix(0.36519618,0,0,0.36519618,69.436869,108.08931)"
     style="fill:#ebebeb"
     id="polygon8"
     points="167.312,175.177 167.209,136.454 93.065,136.454 90.311,163.903 81.559,261.938 80.651,271.937 90.686,271.937 167.209,271.937 167.209,234.7 121.355,234.7 126.732,176.258 " />
  <polygon
     transform="matrix(0.36519618,0,0,0.36519618,69.436869,108.08931)"
     style="fill:#ffffff"
     id="polygon10"
     points="167.12,175.183 207.791,177.632 211.242,216.079 231.393,216.079 248.623,216.079 242.109,144.133 167.129,136.437 166.957,136.485 166.957,175.229 " />
  <polyline
     transform="matrix(0.36519618,0,0,0.36519618,69.436869,108.08931)"
     style="fill:#ffffff"
     id="polyline12"
     points="244.784,175.343 241.593,136.454 162.99,136.454 162.99,160.606 162.99,175.246 162.99,175.343    244.784,175.343  " />
  <polygon
     transform="matrix(0.36519618,0,0,0.36519618,69.436869,108.08931)"
     style="fill:#ffffff"
     id="polygon14"
     points="162.064,331.459 162.064,370.201 238.404,349.043 238.963,342.752 247.715,244.717 248.623,234.718 238.588,234.718 162.064,234.718 162.064,271.954 207.918,271.954 203.596,320.247 " />
  <path
     style="fill:#ffffff;stroke-width:0.3651962"
     inkscape:connector-curvature="0"
     id="path16"
     d="M 157.08395,171.52133" />
  <path
     style="fill:#ffffff;stroke-width:0.3651962"
     inkscape:connector-curvature="0"
     id="path24"
     d="M 156.905,171.52133" />
</svg>
