<?xml version="1.0" encoding="UTF-8" standalone="no"?>
<!-- Created with Inkscape (http://www.inkscape.org/) -->

<svg
   xmlns:dc="http://purl.org/dc/elements/1.1/"
   xmlns:cc="http://creativecommons.org/ns#"
   xmlns:rdf="http://www.w3.org/1999/02/22-rdf-syntax-ns#"
   xmlns:svg="http://www.w3.org/2000/svg"
   xmlns="http://www.w3.org/2000/svg"
   xmlns:sodipodi="http://sodipodi.sourceforge.net/DTD/sodipodi-0.dtd"
   xmlns:inkscape="http://www.inkscape.org/namespaces/inkscape"
   width="791.30542"
   height="512"
   id="svg2"
   version="1.1"
   inkscape:version="0.92.3 (2405546, 2018-03-11)"
   sodipodi:docname="html+css.svg">
  <defs
     id="defs4" />
  <sodipodi:namedview
     id="base"
     pagecolor="#ffffff"
     bordercolor="#666666"
     borderopacity="1.0"
     inkscape:pageopacity="0.0"
     inkscape:pageshadow="2"
     inkscape:zoom="0.7"
     inkscape:cx="201.86556"
     inkscape:cy="299.63562"
     inkscape:document-units="px"
     inkscape:current-layer="layer1"
     showgrid="false"
     fit-margin-top="0"
     fit-margin-left="0"
     fit-margin-right="0"
     fit-margin-bottom="0"
     inkscape:window-width="1366"
     inkscape:window-height="705"
     inkscape:window-x="-8"
     inkscape:window-y="-8"
     inkscape:window-maximized="1" />
  <metadata
     id="metadata7">
    <rdf:RDF>
      <cc:Work
         rdf:about="">
        <dc:format>image/svg+xml</dc:format>
        <dc:type
           rdf:resource="http://purl.org/dc/dcmitype/StillImage" />
        <dc:title />
      </cc:Work>
    </rdf:RDF>
  </metadata>
  <g
     inkscape:label="Calque 1"
     inkscape:groupmode="layer"
     id="layer1"
     transform="translate(-170.06157,-270.18109)">
    <polygon
       style="fill:#264de4;stroke:#ffffff;stroke-width:11.73525715;stroke-miterlimit:4;stroke-dasharray:none;stroke-opacity:1"
       points="74.633,100.62 437.367,100.62 404.321,470.819 255.778,512 107.644,470.877 "
       id="polygon2989"
       transform="matrix(1.0301725,0,0,1.0301725,501.65922,211.40097)" />
    <polygon
       style="fill:#2965f1"
       points="256,480.523 376.03,447.246 404.27,130.894 256,130.894 "
       id="polygon2991"
       transform="matrix(-1.0301725,0,0,1.0301725,1028.6131,211.58493)" />
    <polygon
       style="fill:#ebebeb"
       points="256,313.627 256,268.217 150.31,268.217 154.38,313.627 "
       id="polygon2993"
       transform="matrix(1.0301725,0,0,1.0301725,501.65922,211.40097)" />
    <polygon
       style="fill:#ebebeb"
       points="256,221.716 256,176.305 255.843,176.305 142.132,176.305 146.26,221.716 "
       id="polygon2995"
       transform="matrix(1.0301725,0,0,1.0301725,501.65922,211.40097)" />
    <polygon
       style="fill:#ebebeb"
       points="156.409,336.333 162.771,407.634 255.791,433.457 256,433.399 256,386.153 255.801,386.206 205.227,372.55 201.994,336.333 177.419,336.333 "
       id="polygon2997"
       transform="matrix(1.0301725,0,0,1.0301725,501.65922,211.40097)" />
    <polygon
       style="fill:#ffffff"
       points="255.843,176.305 255.843,221.716 319.831,221.716 315.699,268.217 255.843,268.217 255.843,313.627 311.761,313.627 306.49,372.521 255.843,386.191 255.843,433.435 348.937,407.634 349.62,399.962 360.291,280.411 361.399,268.217 369.597,176.305 "
       id="polygon3005"
       transform="matrix(1.0301725,0,0,1.0301725,501.65922,211.40097)" />
    <polygon
       style="fill:#e44d26;stroke:#ffffff;stroke-width:11.73525715;stroke-miterlimit:4;stroke-dasharray:none"
       points="404.321,470.819 255.778,512 107.644,470.877 74.633,100.62 437.367,100.62 "
       id="polygon3028"
       transform="matrix(-1.0225053,0,0,1.0225053,626.63171,212.12747)" />
    <polygon
       style="fill:#f16529"
       points="256,130.894 256,480.523 376.03,447.246 404.27,130.894 "
       id="polygon3030"
       transform="matrix(-1.0225053,0,0,1.0225053,626.32348,212.12747)" />
    <polygon
       style="fill:#ebebeb"
       points="154.38,313.627 256,313.627 256,268.217 195.91,268.217 191.76,221.716 256,221.716 256,176.305 255.843,176.305 142.132,176.305 143.219,188.488 "
       id="polygon3032"
       transform="matrix(1.0225053,0,0,1.0225053,103.10899,212.12746)" />
    <polygon
       style="fill:#ebebeb"
       points="205.227,372.55 201.994,336.333 177.419,336.333 156.409,336.333 162.771,407.634 255.791,433.457 256,433.399 256,386.153 255.801,386.206 "
       id="polygon3034"
       transform="matrix(1.0225053,0,0,1.0225053,103.10899,212.12746)" />
    <polygon
       style="fill:#ffffff"
       points="255.843,386.191 255.843,433.435 348.937,407.634 349.62,399.962 360.291,280.411 361.399,268.217 349.162,268.217 255.843,268.217 255.843,313.627 311.761,313.627 306.49,372.521 "
       id="polygon3044"
       transform="matrix(1.0225053,0,0,1.0225053,103.10899,212.12746)" />
    <polygon
       style="fill:#ffffff"
       points="255.843,176.305 255.843,204.509 255.843,221.605 255.843,221.716 365.385,221.716 365.531,221.716 366.442,211.509 368.511,188.488 369.597,176.305 "
       id="polygon3046"
       transform="matrix(1.0225053,0,0,1.0225053,103.10899,212.12746)" />
  </g>
</svg>
