<?xml version="1.0" encoding="UTF-8" standalone="no"?>
<svg
   xmlns:dc="http://purl.org/dc/elements/1.1/"
   xmlns:cc="http://creativecommons.org/ns#"
   xmlns:rdf="http://www.w3.org/1999/02/22-rdf-syntax-ns#"
   xmlns:svg="http://www.w3.org/2000/svg"
   xmlns="http://www.w3.org/2000/svg"
   xmlns:sodipodi="http://sodipodi.sourceforge.net/DTD/sodipodi-0.dtd"
   xmlns:inkscape="http://www.inkscape.org/namespaces/inkscape"
   width="2353"
   height="2500"
   viewBox="0 0 256 272"
   preserveAspectRatio="xMidYMid"
   version="1.1"
   id="svg8"
   sodipodi:docname="java.svg"
   inkscape:version="0.92.3 (2405546, 2018-03-11)">
  <metadata
     id="metadata14">
    <rdf:RDF>
      <cc:Work
         rdf:about="">
        <dc:format>image/svg+xml</dc:format>
        <dc:type
           rdf:resource="http://purl.org/dc/dcmitype/StillImage" />
        <dc:title />
      </cc:Work>
    </rdf:RDF>
  </metadata>
  <defs
     id="defs12" />
  <sodipodi:namedview
     pagecolor="#ffffff"
     bordercolor="#666666"
     borderopacity="1"
     objecttolerance="10"
     gridtolerance="10"
     guidetolerance="10"
     inkscape:pageopacity="0"
     inkscape:pageshadow="2"
     inkscape:window-width="1366"
     inkscape:window-height="705"
     id="namedview10"
     showgrid="false"
     inkscape:zoom="0.18827029"
     inkscape:cx="1160.1613"
     inkscape:cy="1195.393"
     inkscape:window-x="-8"
     inkscape:window-y="-8"
     inkscape:window-maximized="1"
     inkscape:current-layer="svg8" />
  <g
     id="g833"
     transform="matrix(1.237053,0,0,1.237053,-30.270708,-21.235881)">
    <path
       sodipodi:nodetypes="cccccccccccccccccccccccccccccc"
       inkscape:connector-curvature="0"
       id="path16"
       d="m 153.08586,22.802677 c 11.1718,21.957899 -3.42649,41.701469 -16.12852,55.603315 10.98618,-5.493692 22.0145,-10.917171 34.60006,-13.74523 8.5266,-1.635006 6.80236,5.304477 1.07026,8.097672 -9.94793,4.754394 -22.30564,11.546552 -27.19343,19.8313 -2.40612,3.914013 -2.25594,7.659166 -0.60909,11.503286 3.48719,8.03388 11.37345,12.94967 10.98255,22.21558 -0.26126,5.27758 -2.82856,8.6727 -7.2925,14.50979 9.40667,-0.73344 18.58616,-4.95062 26.93116,-7.46438 26.08392,-7.75051 41.20061,14.64282 23.8138,32.66492 -7.66718,7.5652 -19.99161,15.16255 -33.98608,18.71929 l 1.15579,9.24628 c 5.13183,3.05182 11.51343,3.18751 18.26849,2.45179 11.31819,-1.47726 9.10875,0.87534 13.10317,10.56142 21.68643,0.28334 3.5612,14.45521 -5.33613,18.05868 -43.12283,16.58127 -97.053798,7.89264 -114.219047,2.86468 -2.291477,-0.6749 -2.310085,-6.03107 -4.681585,-6.19042 -9.87654,-0.67972 -22.711647,-1.58547 -25.836025,-9.5677 -4.495789,-12.74734 32.112621,-17.68703 35.928282,-18.10232 l 2.445776,-13.36766 c -2.270342,-3.19556 -4.655709,-6.39111 -5.720601,-9.58667 -0.794139,-2.4951 -0.811176,-4.49853 0.482301,-6.53113 1.120875,-1.73215 2.906314,-3.55923 4.573286,-5.36938 -7.979587,-0.21234 -12.438254,-1.69988 -18.931981,-5.44369 -6.968937,-5.17055 -8.079814,-8.2225 4.957999,-13.45051 14.598279,-5.83475 27.245588,-8.14328 43.504575,-9.35243 C 102.07319,118.91471 92.853506,105.54163 97.590034,93.275571 102.59483,78.814259 123.48648,67.490603 135.69885,56.297432 c 8.38832,-7.874836 11.99022,-17.746796 8.24654,-29.826622 -1.6354,-5.904145 4.69387,-10.462322 9.14047,-3.668133 z"
       style="fill:#ffffff;stroke:#ffffff;stroke-width:3.26399994;stroke-linecap:round;stroke-linejoin:round;stroke-miterlimit:4;stroke-dasharray:none;stroke-opacity:1" />
    <g
       transform="matrix(1.3843301,0,0,1.3843301,-172.64746,-184.16461)"
       id="g948">
      <path
         style="fill:#e11f21;fill-opacity:1;stroke-width:0.39761612"
         d="m 231.46776,151.43028 c 0,0 15.3281,15.33327 -14.53804,38.9115 -23.94961,18.9138 -5.46126,29.69795 -0.01,42.01928 -13.97983,-12.61318 -24.23912,-23.71661 -17.35638,-34.05065 10.10223,-15.16946 38.08884,-22.52416 31.90432,-46.88013"
         id="path17"
         inkscape:connector-curvature="0" />
      <path
         style="fill:#0b6fb6;fill-opacity:1;stroke-width:0.39761612"
         d="m 197.34673,265.51627 c 0,0 -5.6374,3.27835 4.01195,4.3877 11.68991,1.33361 17.66449,1.14235 30.54685,-1.29584 0,0 3.3869,2.12367 8.11694,3.96305 -28.87886,12.37699 -65.35855,-0.7169 -42.67574,-7.05491"
         id="path5"
         inkscape:connector-curvature="0" />
      <path
         style="fill:#0b6fb6;fill-opacity:1;stroke-width:0.39761612"
         d="m 193.81789,249.36511 c 0,0 -6.3229,4.68035 3.33361,5.67915 12.48753,1.28828 22.34921,1.39365 39.4137,-1.89225 0,0 2.36025,2.39285 6.0716,3.70141 -34.91627,10.20997 -73.8067,0.80518 -48.81891,-7.48831"
         id="path7"
         inkscape:connector-curvature="0" />
      <path
         style="fill:#e11f21;fill-opacity:1;stroke-width:0.39761612"
         d="m 223.56713,221.96737 c 7.11573,8.19248 -1.86959,15.56469 -1.86959,15.56469 0,0 18.06807,-9.32728 9.77022,-21.00726 -7.74994,-10.89229 -13.69311,-16.30425 18.4808,-34.96397 0,0 -50.50242,12.61318 -26.38143,40.40654"
         id="path9"
         inkscape:connector-curvature="0" />
      <path
         style="fill:#0b6fb6;fill-opacity:1;stroke-width:0.39761612"
         d="m 261.76173,277.46266 c 0,0 4.17179,3.43738 -4.59445,6.09665 -16.66926,5.04971 -69.37924,6.57457 -84.02185,0.20118 -5.26365,-2.28987 4.60717,-5.46761 7.71216,-6.13442 3.23818,-0.70218 5.08869,-0.57138 5.08869,-0.57138 -5.8537,-4.12366 -37.83596,8.09706 -16.2454,11.59688 58.88058,9.54875 107.3337,-4.29983 92.06085,-11.18891"
         id="path11"
         inkscape:connector-curvature="0" />
      <path
         style="fill:#0b6fb6;fill-opacity:1;stroke-width:0.39761612"
         d="m 200.05768,232.63064 c 0,0 -26.81166,6.36823 -9.49468,8.68075 7.31176,0.97894 21.88757,0.75747 35.46457,-0.38011 11.09588,-0.936 22.23748,-2.92606 22.23748,-2.92606 0,0 -3.91254,1.67555 -6.74317,3.60837 -27.22676,7.16066 -79.82382,3.82944 -64.6818,-3.49506 12.80562,-6.19007 23.2176,-5.48789 23.2176,-5.48789"
         id="path13"
         inkscape:connector-curvature="0" />
      <path
         style="fill:#0b6fb6;fill-opacity:1;stroke-width:0.39761612"
         d="m 248.15451,259.51506 c 27.67727,-14.38217 14.88039,-28.20331 5.94834,-26.34128 -2.18927,0.45567 -3.16542,0.8505 -3.16542,0.8505 0,0 0.81273,-1.27315 2.36502,-1.82425 17.67046,-6.21236 31.26018,18.32254 -5.7042,28.03988 0,0 0.42823,-0.3825 0.55626,-0.72485"
         id="path15"
         inkscape:connector-curvature="0" />
      <path
         style="fill:#0b6fb6;fill-opacity:1;stroke-width:0.39761612"
         d="m 202.77737,298.4874 c 26.56672,1.70059 67.36293,-0.94354 68.32914,-13.51418 0,0 -1.85726,4.76543 -21.95597,8.54994 -22.67525,4.26721 -50.64198,3.769 -67.22933,1.03419 3.3e-4,0 3.39564,2.81035 20.85616,3.93005"
         id="path19"
         inkscape:connector-curvature="0" />
    </g>
  </g>
</svg>
